HIERARCHY
ROOT Hips
{
	OFFSET -3.958830 18.904000 13.208200
	CHANNELS 6 Xposition Yposition Zposition Zrotation Yrotation Xrotation 
	JOINT LHipJoint
	{
		OFFSET 0.000000 0.000000 0.000000
		CHANNELS 3 Zrotation Yrotation Xrotation
		JOINT LeftUpLeg
		{
			OFFSET 1.800000 -1.400000 0.085000
			CHANNELS 3 Zrotation Yrotation Xrotation
			JOINT LeftLeg
			{
				OFFSET 2.215000 -6.000000 0.000000
				CHANNELS 3 Zrotation Yrotation Xrotation
				JOINT LeftFoot
				{
					OFFSET 2.500000 -6.900000 0.000000
					CHANNELS 3 Zrotation Yrotation Xrotation
					JOINT LeftToeBase
					{
						OFFSET 0.200000 -0.500000 1.950000
						CHANNELS 3 Zrotation Yrotation Xrotation
						End Site
						{
							OFFSET 0.000000 0.000000 0.000000
						}
					}
				}
			}
		}
	}
	JOINT RHipJoint
	{
		OFFSET 0.000000 0.000000 0.000000
		CHANNELS 3 Zrotation Yrotation Xrotation
		JOINT RightUpLeg
		{
			OFFSET -1.800000 -1.400000 0.085000
			CHANNELS 3 Zrotation Yrotation Xrotation
			JOINT RightLeg
			{
				OFFSET -2.215000 -6.000000 0.000000
				CHANNELS 3 Zrotation Yrotation Xrotation
				JOINT RightFoot
				{
					OFFSET -2.500000 -6.900000 0.000000
					CHANNELS 3 Zrotation Yrotation Xrotation
					JOINT RightToeBase
					{
						OFFSET -0.200000 -0.500000 1.950000
						CHANNELS 3 Zrotation Yrotation Xrotation
						End Site
						{
							OFFSET 0.000000 0.000000 0.000000
						}
					}
				}
			}
		}
	}
	JOINT LowerBack
	{
		OFFSET 0.000000 0.000000 0.000000
		CHANNELS 3 Zrotation Yrotation Xrotation
		JOINT Spine
		{
			OFFSET -0.087000 1.940000 -0.288900
			CHANNELS 3 Zrotation Yrotation Xrotation
			JOINT Spine1
			{
				OFFSET 0.000000 1.950000 0.060000
				CHANNELS 3 Zrotation Yrotation Xrotation
				JOINT Neck
				{
					OFFSET 0.000000 0.000000 0.000000
					CHANNELS 3 Zrotation Yrotation Xrotation
					JOINT Neck1
					{
						OFFSET 0.000000 1.600000 0.340000
						CHANNELS 3 Zrotation Yrotation Xrotation
						JOINT Head
						{
							OFFSET 0.000000 1.667000 -0.240000
							CHANNELS 3 Zrotation Yrotation Xrotation
							End Site
							{
								OFFSET 0.000000 0.000000 0.000000
							}
						}
					}
				}
				JOINT LeftShoulder
				{
					OFFSET 0.000000 0.000000 0.000000
					CHANNELS 3 Zrotation Yrotation Xrotation
					JOINT LeftArm
					{
						OFFSET 2.700000 1.550000 -0.730000
						CHANNELS 3 Zrotation Yrotation Xrotation
						JOINT LeftForeArm
						{
							OFFSET 5.450000 0.000000 0.000000
							CHANNELS 3 Zrotation Yrotation Xrotation
							JOINT LeftHand
							{
								OFFSET 3.450000 0.000000 0.000000
								CHANNELS 3 Zrotation Yrotation Xrotation
								JOINT LeftHandIndex1
								{
									OFFSET 0.750000 0.000000 0.000000
									CHANNELS 3 Zrotation Yrotation Xrotation
									End Site
									{
										OFFSET 0.000000 0.000000 0.000000
									}
								}
							}
						}
					}
				}
				JOINT RightShoulder
				{
					OFFSET 0.000000 0.000000 0.000000
					CHANNELS 3 Zrotation Yrotation Xrotation
					JOINT RightArm
					{
						OFFSET -2.700000 1.550000 -0.730000
						CHANNELS 3 Zrotation Yrotation Xrotation
						JOINT RightForeArm
						{
							OFFSET -5.450000 0.000000 0.000000
							CHANNELS 3 Zrotation Yrotation Xrotation
							JOINT RightHand
							{
								OFFSET -3.450000 0.000000 0.000000
								CHANNELS 3 Zrotation Yrotation Xrotation
								JOINT RightHandIndex1
								{
									OFFSET -0.750000 0.000000 0.000000
									CHANNELS 3 Zrotation Yrotation Xrotation
									End Site
									{
										OFFSET 0.000000 0.000000 0.000000
									}
								}
							}
						}
					}
				}
			}
		}
	}
}
MOTION
Frames: 6
Frame Time: 0.016667
-0.819200 16.189470 -7.393980 -10.362896 3.887963 -5.733036 -15.537418 10.443585 5.957662 41.702250 -0.452503 -33.091657 -18.952685 21.248807 42.281015 0.301526 11.762633 0.217124 0.417730 0.052830 0.351410 18.439616 -8.722230 3.007593 -20.457634 7.022041 -27.331691 22.548590 -18.731189 43.189849 -1.451698 -8.592346 1.278097 0.067230 0.121070 0.299600 -3.416157 -1.047394 -9.897214 -3.498384 0.276665 38.745098 -9.674131 3.830401 6.851603 1.374801 1.054976 -15.658583 -1.492652 4.211306 49.412443 10.111860 3.583850 -23.464620 -21.530085 -27.564912 6.449391 -17.248994 -8.264936 -10.371069 29.532162 -27.966469 -9.362352 -3.663446 2.648852 1.065130 -0.125910 0.288270 0.080990 18.502741 28.795069 11.834945 35.847171 7.640267 -13.440578 17.471519 46.417340 3.391163 1.702593 -1.120578 -0.298680 0.374030 0.160990 -0.335920 
-0.885590 16.121170 -7.443790 -10.175875 5.036979 -5.524444 -15.575867 10.117570 6.134898 42.913099 -0.230175 -34.484989 -20.259033 21.958079 42.431353 0.335520 11.989669 0.152756 0.401750 0.036820 0.346290 18.481312 -8.400388 3.189711 -21.593949 7.790089 -29.077417 24.484329 -20.185351 44.695217 -1.578496 -9.105179 1.123715 0.064940 0.120260 0.293100 -3.409351 -1.026041 -10.042423 -3.821390 0.564658 41.373533 -9.414184 4.317039 6.772321 1.382747 1.342046 -16.208532 -0.773912 3.345564 46.572416 9.872430 3.312230 -25.093370 -19.972617 -28.533854 6.617977 -14.463047 -8.042437 -9.837729 27.573837 -26.350497 -8.203208 -3.679109 2.636063 1.075420 -0.128670 0.283770 0.067480 16.901134 29.815455 12.194170 33.007416 6.784425 -13.933936 17.114822 47.075384 3.484321 1.649392 -1.125665 -0.313880 0.384210 0.175370 -0.344220 
-0.947950 16.051400 -7.478680 -10.060621 6.373437 -5.350000 -15.628757 9.831480 6.339654 44.132033 -0.009855 -36.156308 -21.390114 22.812177 43.082580 0.436872 12.240321 0.103925 0.384910 0.019580 0.347980 18.504399 -8.082403 3.333922 -22.659537 8.345805 -30.609046 26.088287 -21.580834 46.084408 -1.700351 -9.563572 1.003144 0.039770 0.111410 0.290740 -3.350093 -1.101312 -10.195642 -4.125726 0.854985 43.879186 -8.794144 4.565291 5.666287 1.515811 1.637022 -16.720912 -0.166208 2.410474 44.680909 9.178040 2.982780 -25.720510 -19.230737 -28.898178 6.791616 -12.515405 -7.354874 -9.338241 25.596854 -25.689324 -7.222087 -3.672571 2.632692 1.065520 -0.131280 0.285920 0.063480 15.905399 30.292386 12.410036 30.094765 5.718330 -13.706679 17.443598 46.411717 3.872050 1.641495 -1.131250 -0.304160 0.373900 0.167340 -0.341650 
-1.002970 15.985570 -7.485060 -10.181292 7.484607 -5.251422 -15.674819 9.594853 6.488542 45.283246 0.425219 -37.547234 -21.793472 23.574138 44.042743 0.522462 12.477018 0.058202 0.350380 -0.022310 0.325100 18.525309 -7.766014 3.503053 -23.785168 8.894287 -31.956674 28.290585 -23.249912 47.110058 -1.829063 -10.042690 0.883199 0.006320 0.121050 0.287580 -3.293660 -1.220379 -10.353069 -3.879896 1.025009 45.787810 -8.164120 4.814571 3.919571 1.661701 1.601423 -17.007494 -0.290830 1.878604 43.609721 9.062850 2.478440 -25.582970 -19.183092 -28.653819 6.751962 -11.289855 -7.042101 -8.559658 23.045856 -25.151683 -6.188544 -3.667434 2.614191 1.059870 -0.127740 0.274630 0.060380 15.666184 30.289039 12.525353 26.966029 4.627693 -12.783112 18.948357 44.552682 4.610477 1.659225 -1.116259 -0.306490 0.367130 0.176530 -0.336890 
-1.051830 15.922040 -7.474310 -10.344196 8.774151 -5.196965 -15.735108 9.441056 6.614974 46.065078 0.842243 -39.158757 -21.429547 24.135389 45.444556 0.630948 12.650566 0.031776 0.330810 -0.041830 0.313540 18.518693 -7.472285 3.637803 -24.890945 9.170460 -32.796607 30.662875 -24.903682 47.559750 -1.951018 -10.437801 0.788274 -0.029980 0.109160 0.292390 -3.172770 -1.464361 -10.493494 -3.480274 1.345558 47.169651 -7.142460 5.169554 1.828664 1.922848 1.549067 -17.098972 -0.593342 1.104999 43.192359 8.724750 1.738520 -25.089220 -19.829674 -28.076021 6.491218 -11.507001 -7.493452 -7.923991 21.116403 -25.053457 -5.509285 -3.642511 2.620311 1.035290 -0.132660 0.277650 0.062810 15.978636 29.999803 12.703310 24.138491 3.086236 -11.694227 20.438271 42.241449 5.179009 1.709649 -1.112963 -0.278400 0.335500 0.163760 -0.321380 
-1.093720 15.862940 -7.421810 -10.309452 10.081034 -5.266163 -15.764995 9.363825 6.682716 46.372352 1.170266 -40.147480 -20.805726 24.581056 46.838666 0.716039 12.796854 0.007538 0.290560 -0.092810 0.287450 18.511158 -7.319469 3.721996 -25.906768 9.235597 -32.802975 32.653838 -26.293081 47.708167 -2.033931 -10.731567 0.724920 -0.078490 0.107120 0.290060 -3.098902 -1.596772 -10.605949 -2.879082 1.609813 47.913621 -6.469443 5.614993 -1.104345 2.074673 1.641434 -17.127003 -0.697258 0.366985 44.035666 8.785470 0.810120 -23.753670 -21.354908 -27.246655 6.216614 -11.589571 -7.297618 -7.039748 16.723053 -25.619553 -4.299854 -3.609961 2.609474 1.022400 -0.133040 0.267700 0.056600 17.426582 29.303214 12.764509 22.327311 2.249985 -9.860418 21.666936 37.338182 5.108977 1.794018 -1.056808 -0.267460 0.307250 0.168780 -0.313910 
